<svg id="Layer_1" xmlns="http://www.w3.org/2000/svg" viewBox="0 0 641.26 446.92"><defs><clipPath id="clippath"><path class="cls-1" d="M508.76 140.24h66.25v113.05h-66.25z"/></clipPath><clipPath id="clippath-1"><path class="cls-1" d="M575.01 140.24h66.25v113.05h-66.25z"/></clipPath><clipPath id="clippath-2"><path class="cls-1" d="M297.79 140.05h66.25V253.1h-66.25z"/></clipPath><clipPath id="clippath-3"><path class="cls-1" d="M364.05 140.05h66.25V253.1h-66.25z"/></clipPath><style>.cls-1{fill:none}.cls-3{fill:#529962}</style></defs><path class="cls-3" d="M74.72 185.47c-31.48 0-57 6.2-57 13.85s25.52 13.85 57 13.85 57-6.2 57-13.85-25.52-13.85-57-13.85zm0 24.57c-27.23 0-49.31-4.79-49.31-10.71s22.08-10.71 49.31-10.71 49.31 4.79 49.31 10.71-22.08 10.71-49.31 10.71z"/><path class="cls-3" d="M29.93 202.72c-5.92 7.69-10.92 16.98-11.98 25.73-.35 2.93-1.95 16.15 6.03 27.75 12.25 17.81 37.27 17.61 50.79 17.5 13.43-.11 38.31-.32 50.59-18.37 7.35-10.8 6.67-22.82 6.23-26.88-.96-8.8-5.54-17.49-11.66-25.19l-1.82.58c-2.77 5.27-21.04 8.86-43.91 8.86s-39.43-4.34-43.03-9.51c-.09-.04-.17-.02-.25-.07m32.66 57.08c-6.24 4.77-20.3-.38-26.82-9.83-5.39-7.81-7.37-21.08-.63-26.27 5.86-4.51 15.91-1.06 21.53 3.48 10.57 8.57 13.01 27.2 5.93 32.61zm48.81-9.83c-6.52 9.45-20.59 14.6-26.82 9.83-7.08-5.41-4.64-24.05 5.93-32.61 5.61-4.55 15.67-7.99 21.53-3.48 6.74 5.19 4.76 18.46-.63 26.27z"/><path d="M146.95 230.51c-1.32-12.14-9.88-22.88-18.68-33.26.09.31.59.8.59 1.11 0 7.65-23.22 12.15-54.78 12.15s-51.8-5.26-53.59-12.52c-7.86 9.96-16.46 21.02-17.85 32.53-.45 3.72-2.48 20.51 7.66 35.25 15.55 22.62 47.33 22.36 64.5 22.22 17.06-.14 48.65-.4 64.25-23.33 9.33-13.72 8.47-28.98 7.91-34.13z" style="stroke:#529962;stroke-linecap:round;stroke-linejoin:round;stroke-width:4.35px;fill:none"/><path class="cls-3" d="M74.72 200.07c-2.5 0-4.55-1.48-4.55-3.29v-19.15c.02-.34.13-1.48 1.34-2.32 1.7-1.18 4.73-1.18 6.43 0 1.21.84 1.32 1.98 1.34 2.32v19.15c0 1.81-2.05 3.29-4.55 3.29z"/><path class="cls-3" d="M74.22 162.91c.8-2.44 2.16-4.16 3.14-5.2-1.65-2.86-6.17-9.81-15.11-14.4-8.49-4.35-16.33-4.2-19.64-3.95.01 19.07 8.85 33.8 20.43 36.61 2.2.54 6.03 1 11.19-.68L59.3 154.7c2.97 1.57 10.21 5.95 13.49 14.56.82 2.16 1.25 4.21 1.46 6.02.45-.15.91-.31 1.39-.49-.58-1.04-3.3-6.13-1.4-11.9z"/><path class="cls-3" d="M73 165.77c-.2 1.73-.16 4.94 2.43 9.12.37.14.71.24 1.07.36.16-1.36.49-2.9 1.12-4.52 2.51-6.49 8.07-9.78 10.35-10.97l-11.45 15.5c3.95 1.26 6.89.92 8.57.52 8.88-2.12 15.66-13.21 15.67-27.57-15.67 1.16-26.75 8.97-27.75 17.56z"/><ellipse class="cls-3" cx="28.45" cy="290.21" rx="21.86" ry="16.47"/><ellipse class="cls-3" cx="115.44" cy="290.21" rx="21.86" ry="16.47"/><g><path class="cls-3" d="M237.04 306.04v-27.82c0-.61.49-1.1 1.1-1.1h14.36c2.87 0 5.06.25 6.57.74 1.52.49 2.74 1.4 3.66 2.73.93 1.33 1.39 2.95 1.39 4.86 0 1.67-.36 3.1-1.07 4.31-.71 1.21-1.69 2.19-2.93 2.94-.2.12-.42.24-.67.35-.78.36-.89 1.43-.19 1.93h.02c.34.26.83.78 1.48 1.59s1.08 1.43 1.3 1.87l3.66 7.09c.38.73-.15 1.61-.98 1.61h-8.02c-.4 0-.78-.22-.97-.58l-4.65-8.6c-.63-1.19-1.19-1.96-1.68-2.31-.67-.46-1.43-.7-2.27-.7h-.82v11.08c0 .61-.49 1.1-1.1 1.1h-7.12c-.61 0-1.1-.49-1.1-1.1zm9.31-17.85c0 .61.49 1.1 1.1 1.1h2.81c.42 0 1.24-.14 2.46-.41.61-.12 1.12-.44 1.5-.94.39-.5.58-1.09.58-1.74 0-.97-.31-1.71-.92-2.23-.61-.52-1.77-.78-3.46-.78h-2.97c-.61 0-1.1.49-1.1 1.1v3.9zM282.35 292.16c0-4.9 1.36-8.72 4.09-11.45 2.73-2.73 6.53-4.09 11.4-4.09s8.85 1.34 11.55 4.02c2.7 2.68 4.05 6.44 4.05 11.27 0 3.51-.59 6.38-1.77 8.63-1.18 2.25-2.89 3.99-5.12 5.24s-5.01 1.87-8.34 1.87-6.19-.54-8.4-1.62c-2.22-1.08-4.02-2.78-5.4-5.12-1.38-2.33-2.07-5.25-2.07-8.76zm9.27.04c0 3.03.56 5.21 1.69 6.53 1.13 1.32 2.66 1.99 4.6 1.99s3.54-.65 4.63-1.95c1.09-1.3 1.64-3.62 1.64-6.98 0-2.83-.57-4.89-1.71-6.19-1.14-1.3-2.69-1.96-4.64-1.96s-3.37.66-4.5 1.99c-1.13 1.32-1.7 3.51-1.7 6.57zM332.45 278.45c0-.73.59-1.32 1.32-1.32h16.04c4.62 0 7.52 1.82 8.72 5.47.11.33.18.68.22 1.02.23 2.2-.3 4.05-1.61 5.54-.74.85-1.81 1.51-3.23 2.01 2.16.52 3.74 1.41 4.76 2.67 1.02 1.26 1.53 2.85 1.53 4.76 0 1.56-.36 2.96-1.09 4.2a7.934 7.934 0 0 1-2.97 2.95c-.78.45-1.95.78-3.52.98-2.09.27-3.47.41-4.16.41h-15.02c-.55 0-.99-.44-.99-.99v-27.7zm9.36 9.19c0 .7.57 1.27 1.27 1.27h2.77c1.45 0 2.45-.25 3.02-.75.57-.5.85-1.22.85-2.16 0-.87-.28-1.56-.85-2.05s-1.55-.74-2.96-.74h-3.04c-.58 0-1.06.47-1.06 1.06v3.37zm0 11.56c0 .83.67 1.5 1.5 1.5h3.23c1.6 0 2.72-.28 3.38-.85.66-.57.98-1.33.98-2.28 0-.89-.32-1.6-.97-2.14-.65-.54-1.78-.81-3.41-.81h-3.65c-.59 0-1.06.48-1.06 1.06v3.52zM377.86 292.16c0-4.9 1.36-8.72 4.09-11.45 2.73-2.73 6.53-4.09 11.4-4.09s8.85 1.34 11.55 4.02c2.7 2.68 4.05 6.44 4.05 11.27 0 3.51-.59 6.38-1.77 8.63-1.18 2.25-2.89 3.99-5.12 5.24s-5.01 1.87-8.34 1.87-6.19-.54-8.4-1.62c-2.22-1.08-4.02-2.78-5.4-5.12-1.38-2.33-2.07-5.25-2.07-8.76zm9.28.04c0 3.03.56 5.21 1.69 6.53 1.13 1.32 2.66 1.99 4.6 1.99s3.54-.65 4.63-1.95c1.09-1.3 1.64-3.62 1.64-6.98 0-2.83-.57-4.89-1.71-6.19-1.14-1.3-2.69-1.96-4.64-1.96s-3.37.66-4.5 1.99c-1.13 1.32-1.7 3.51-1.7 6.57zM426.9 277.13h26.07c.59 0 1.06.48 1.06 1.06v5.28c0 .59-.48 1.06-1.06 1.06h-7.33c-.59 0-1.06.48-1.06 1.06v20.48c0 .59-.48 1.06-1.06 1.06h-7.15c-.59 0-1.06-.48-1.06-1.06v-20.48c0-.59-.48-1.06-1.06-1.06h-7.33c-.59 0-1.06-.48-1.06-1.06v-5.28c0-.59.48-1.06 1.06-1.06zM473.84 277.13h6.76c.7 0 1.27.57 1.27 1.27v27.48c0 .7-.57 1.27-1.27 1.27h-6.76c-.7 0-1.27-.57-1.27-1.27V278.4c0-.7.57-1.27 1.27-1.27zM524.16 295.36l4.87 1.47c.91.27 1.43 1.25 1.13 2.15-.53 1.56-1.23 2.91-2.1 4.05-1.17 1.53-2.63 2.68-4.37 3.46s-3.95 1.17-6.64 1.17c-3.26 0-5.93-.47-8-1.42-2.07-.95-3.85-2.62-5.35-5-1.5-2.39-2.25-5.44-2.25-9.17 0-4.97 1.32-8.78 3.96-11.45 2.64-2.67 6.38-4 11.21-4 3.78 0 6.75.76 8.92 2.29 1.69 1.19 3.04 2.89 4.05 5.08.46.99-.09 2.16-1.16 2.39l-4.83 1.07c-.79.17-1.57-.24-1.91-.97-.14-.29-.27-.53-.42-.72a5.323 5.323 0 0 0-1.9-1.64c-.75-.38-1.59-.57-2.52-.57-2.1 0-3.71.85-4.83 2.54-.85 1.25-1.27 3.22-1.27 5.91 0 3.33.5 5.61 1.52 6.84 1.01 1.23 2.43 1.85 4.26 1.85s3.12-.5 4.02-1.49c.64-.7 1.15-1.62 1.54-2.77.29-.85 1.24-1.33 2.09-1.07zM549.18 297.11l5.77-.36c.73-.05 1.41.43 1.6 1.14.22.85.53 1.53.93 2.05.96 1.22 2.32 1.82 4.09 1.82 1.32 0 2.34-.31 3.06-.93.72-.62 1.07-1.34 1.07-2.16s-.34-1.47-1.02-2.09-2.27-1.19-4.75-1.74c-4.07-.91-6.97-2.13-8.7-3.64-1.75-1.52-2.62-3.45-2.62-5.79 0-1.54.45-3 1.34-4.37.89-1.37 2.24-2.45 4.03-3.24 1.79-.78 4.26-1.18 7.38-1.18 3.84 0 6.76.71 8.77 2.14 1.59 1.13 2.67 2.78 3.24 4.96.25.95-.44 1.9-1.42 1.95l-5.69.33c-.68.04-1.33-.36-1.55-1-.27-.81-.67-1.43-1.2-1.87-.74-.61-1.77-.92-3.08-.92-1.08 0-1.89.23-2.44.69-.55.46-.82 1.01-.82 1.67 0 .48.23.91.68 1.29.44.4 1.47.76 3.11 1.11 4.05.87 6.96 1.76 8.71 2.65 1.75.89 3.03 2 3.83 3.33.8 1.32 1.2 2.81 1.2 4.44 0 1.92-.53 3.7-1.6 5.32-1.06 1.62-2.55 2.86-4.46 3.7-1.91.84-4.32 1.26-7.23 1.26-5.11 0-8.64-.98-10.61-2.95-1.58-1.58-2.61-3.5-3.09-5.77-.19-.91.51-1.77 1.44-1.83zM455.04 144.04l.16 105.21c0 2.07 1.68 3.76 3.76 3.76l21.17.08c2.09 0 3.79-1.69 3.78-3.78l-.16-105.34c0-2.08-1.7-3.77-3.78-3.76-7.06.02-14.12.03-21.17.05-2.08 0-3.76 1.69-3.76 3.78z"/><path class="cls-3" d="M577.25 140.24h-15c-2.11 0-4.02 1.23-4.89 3.15L509 249.59c-.79 1.73.48 3.7 2.38 3.7h27.64c1.79 0 3.42-1.05 4.17-2.68l34.11-74.9-.04-35.47z" style="clip-path:url(#clippath)" id="_x3C_Mirror_Repeat_x3E_"/><path class="cls-3" d="M572.77 140.24h15c2.11 0 4.02 1.23 4.89 3.15l48.36 106.2c.79 1.73-.48 3.7-2.38 3.7H611c-1.79 0-3.42-1.05-4.17-2.68l-34.11-74.9.04-35.47z" style="clip-path:url(#clippath-1)" id="_x3C_Mirror_Repeat_x3E_-2" data-name="_x3C_Mirror_Repeat_x3E_"/><path class="cls-3" d="M366.29 140.05h-15c-2.11 0-4.02 1.23-4.89 3.15l-48.36 106.2c-.79 1.73.48 3.7 2.38 3.7h27.64c1.79 0 3.42-1.05 4.17-2.68l34.11-74.9-.04-35.47z" style="clip-path:url(#clippath-2)" id="_x3C_Mirror_Repeat_x3E_-3" data-name="_x3C_Mirror_Repeat_x3E_"/><path class="cls-3" d="M361.81 140.05h15c2.11 0 4.02 1.23 4.89 3.15l48.36 106.2c.79 1.73-.48 3.7-2.38 3.7h-27.64c-1.79 0-3.42-1.05-4.17-2.68l-34.11-74.9.04-35.47z" style="clip-path:url(#clippath-3)" id="_x3C_Mirror_Repeat_x3E_-4" data-name="_x3C_Mirror_Repeat_x3E_"/><path class="cls-3" d="M272.67 196.58v-.03h-15.21c-11.62 0-21.03 9.42-21.03 21.03s18.26 0 18.26 0a27.793 27.793 0 0 1-19.82 6.79c-13.91-.76-25.28-11.95-26.23-25.85-1.12-16.28 11.76-29.82 27.79-29.82 9.23 0 17.41 4.49 22.48 11.41 2.71 3.7 6.96 5.97 11.55 5.97 11.69 0 18.59-13.27 11.72-22.72-10.38-14.27-27.27-23.5-46.32-23.32-30.31.3-55.26 24.88-55.97 55.18-.75 31.86 24.85 57.93 56.54 57.93s56.56-25.32 56.56-56.56h-20.31z"/></g></svg>