<!DOCTYPE svg PUBLIC "-//W3C//DTD SVG 20010904//EN" "http://www.w3.org/TR/2001/REC-SVG-20010904/DTD/svg10.dtd"[]><svg version="1.0" xmlns="http://www.w3.org/2000/svg" width="131" height="46" viewBox="0 0 874.000000 312.000000" preserveAspectRatio="xMidYMid meet"><g transform="translate(0.000000,312.000000) scale(0.100000,-0.100000)" fill="#000000" stroke="none"><path d="M1270 2666 c-210 -59 -348 -275 -312 -488 8 -45 25 -96 47 -135 l34 -62 -45 29 c-66 42 -156 63 -251 59 -295 -14 -490 -352 -356 -618 111 -219 402 -308 603 -183 l47 29 -34 -66 c-137 -268 20 -573 320 -623 181 -30 366 73 450 249 30 64 32 75 32 178 0 105 -1 113 -35 180 -46 94 -45 92 -24 74 61 -53 176 -84 281 -76 218 16 393 209 393 432 0 165 -93 308 -249 383 -62 30 -88 36 -158 40 -95 5 -154 -7 -230 -49 l-52 -29 25 47 c42 81 57 147 52 243 -3 73 -9 98 -36 152 -91 185 -310 287 -502 234z m220 -48 c96 -24 192 -107 237 -204 58 -127 51 -253 -19 -370 l-40 -66 26 -27 c26 -25 26 -25 54 -8 100 66 209 93 306 77 244 -39 387 -308 287 -535 -65 -146 -207 -231 -374 -223 -82 3 -134 22 -219 75 -26 17 -28 17 -52 -6 -15 -14 -26 -28 -26 -32 0 -4 15 -30 34 -58 49 -72 71 -177 57 -266 -41 -269 -352 -413 -581 -270 -59 37 -111 97 -144 165 -28 60 -31 73 -31 165 0 103 14 148 72 238 13 20 15 31 7 44 -21 33 -42 39 -71 20 -91 -59 -134 -72 -243 -72 -96 0 -110 2 -162 29 -134 68 -218 204 -218 351 0 295 329 478 584 324 36 -21 68 -39 72 -39 14 0 44 33 44 49 0 9 -11 32 -23 51 -63 93 -84 229 -52 336 32 108 135 211 250 247 80 26 137 27 225 5z" /><path d="M1274 2501 c-98 -44 -156 -131 -162 -242 -5 -85 18 -139 92 -217 l55 -58 -222 -222 c-208 -207 -225 -222 -259 -222 -69 0 -122 71 -99 132 23 61 99 89 147 53 10 -8 26 -15 34 -15 20 0 110 91 110 111 0 18 -58 61 -105 79 -16 7 -59 12 -93 12 -246 -1 -361 -292 -185 -468 52 -52 105 -74 183 -74 82 0 144 28 221 98 l55 51 206 -207 c113 -114 211 -217 217 -229 14 -28 14 -78 0 -105 -11 -21 -66 -48 -98 -48 -31 0 -80 47 -87 85 -4 25 0 46 14 74 l20 38 -54 54 c-61 60 -70 60 -112 -1 -32 -47 -45 -106 -39 -175 5 -71 24 -111 72 -160 77 -76 198 -105 292 -70 104 40 175 145 176 260 1 78 -24 133 -93 208 l-54 59 220 219 c218 217 220 219 263 219 80 0 124 -76 87 -148 -27 -53 -76 -63 -153 -31 -32 13 -34 13 -83 -36 -27 -27 -50 -55 -50 -61 0 -7 13 -23 30 -37 102 -87 275 -73 372 30 99 104 90 283 -19 384 -57 53 -104 71 -178 71 -80 1 -149 -30 -211 -93 -26 -27 -53 -49 -59 -49 -13 0 -420 409 -434 437 -50 98 82 192 160 114 35 -35 39 -91 12 -140 l-18 -30 45 -46 c73 -75 87 -71 137 35 65 136 8 290 -132 356 -63 30 -161 32 -221 5z m216 -756 l105 -105 -108 -108 -107 -107 -107 107 -108 108 105 105 c58 58 107 105 110 105 3 0 52 -47 110 -105z" /><path d="M3785 2314 c-409 -47 -660 -257 -721 -605 -39 -222 11 -456 132 -620 81 -110 261 -222 409 -254 205 -45 500 -23 743 56 l62 21 0 409 0 409 -340 0 -340 0 0 -165 0 -165 160 0 160 0 0 -114 0 -113 -77 -7 c-167 -14 -312 2 -393 44 -49 26 -105 87 -129 141 -43 98 -50 261 -15 378 61 207 300 278 719 214 55 -8 115 -21 134 -29 18 -8 37 -14 42 -14 5 0 9 82 9 183 l0 184 -92 17 c-147 29 -355 42 -463 30z" /><path d="M4808 1570 l-296 -740 198 0 197 0 53 150 54 150 270 0 271 0 34 -98 c18 -53 42 -121 53 -149 l19 -53 195 0 c107 0 194 3 194 7 0 5 -132 338 -292 740 l-293 733 -181 0 -180 0 -296 -740z m556 100 l74 -205 -151 -3 c-82 -1 -151 -1 -153 0 -1 2 32 100 74 217 42 117 78 210 79 205 2 -5 37 -101 77 -214z" /><path d="M6210 1570 l0 -740 180 0 180 0 0 740 0 740 -180 0 -180 0 0 -740z" /><path d="M7013 1577 c-161 -402 -293 -735 -293 -740 0 -4 87 -7 194 -7 l193 0 53 150 54 150 271 0 271 0 24 -67 c13 -38 36 -105 52 -150 l30 -83 198 0 198 0 -296 740 -296 740 -180 0 -181 0 -292 -733z m551 93 l74 -205 -151 -3 c-82 -1 -151 -1 -153 0 -1 2 32 100 74 217 42 117 78 210 79 205 2 -5 37 -101 77 -214z" /></g></svg>